<svg width="92" height="41" viewBox="0 0 92 41" fill="none" xmlns="http://www.w3.org/2000/svg">
<path d="M0 38.7071V1.51094H21.3992L27.0013 7.11308V15.8443L24.5788 18.5697L28.6668 22.6073V33.105L23.0647 38.7071H0ZM6.30872 16.45H18.4719L20.6421 13.9265V9.28328L18.4215 7.06261H6.30872V16.45ZM6.30872 33.1555H20.087L22.3076 30.9348V24.2223L20.087 22.0017H6.30872V33.1555Z" fill="url(#paint0_linear_2_14)"/>
<mask id="mask0_2_14" style="mask-type:alpha" maskUnits="userSpaceOnUse" x="25" y="0" width="41" height="41">
<rect x="25.5125" width="40.2181" height="40.2181" fill="#D9D9D9"/>
</mask>
<g mask="url(#mask0_2_14)">
<path d="M35.4333 33.4104L35.4623 30.0927L43.1019 30.3948L43.2777 10.2517L35.6381 9.94958L35.667 6.63189L39.0445 6.60211L39.0734 3.28442L44.05 3.32785L44.1387 -0.0485735L47.4564 -0.0196204L47.4861 3.35784L52.4627 3.40127L52.4337 6.71896L55.8102 6.80768L55.7812 10.1254L48.1006 10.1254L47.9248 30.2685L55.6054 30.2685L55.5765 33.5862L52.199 33.616L52.1701 36.9337L47.1935 36.8902L47.1048 40.2667L43.7871 40.2377L43.7573 36.8603L38.7808 36.8168L38.8097 33.4991L35.4333 33.4104Z" fill="url(#paint1_linear_2_14)"/>
</g>
<path d="M68.1783 38.7071L62.5762 33.105V7.11308L68.1783 1.51094H86.3979L92 7.11308V33.105L86.3979 38.7071H68.1783ZM71.156 33.1555H83.4706L85.6913 30.9348L85.6408 9.28328L83.4706 7.06261H71.1056L68.8849 9.28328L68.9354 30.9348L71.156 33.1555Z" fill="url(#paint2_linear_2_14)"/>
<defs>
<linearGradient id="paint0_linear_2_14" x1="14.3334" y1="1.51094" x2="14.3334" y2="38.7071" gradientUnits="userSpaceOnUse">
<stop stop-color="#53D909"/>
<stop offset="1" stop-color="#3CAE02"/>
</linearGradient>
<linearGradient id="paint1_linear_2_14" x1="57.4545" y1="8.481" x2="33.7889" y2="31.7371" gradientUnits="userSpaceOnUse">
<stop stop-color="#53D909"/>
<stop offset="1" stop-color="#3CAE02"/>
</linearGradient>
<linearGradient id="paint2_linear_2_14" x1="77.2881" y1="1.51094" x2="77.2881" y2="38.7071" gradientUnits="userSpaceOnUse">
<stop stop-color="#53D909"/>
<stop offset="1" stop-color="#3CAE02"/>
</linearGradient>
</defs>
</svg>
