<svg width="271" height="76" viewBox="0 0 271 76" fill="none" xmlns="http://www.w3.org/2000/svg">
<g clip-path="url(#clip0_2_161)">
<path fill-rule="evenodd" clip-rule="evenodd" d="M86.6636 17.4167L96.5066 41.6044C96.5066 41.6044 97.1362 42.6223 95.793 42.6223C94.4498 42.6223 93.4319 42.6118 93.4319 42.6118L90.0845 47.6802L97.4615 47.7537C97.4615 47.7537 99.3084 47.8901 100.431 46.6938C101.554 45.4976 101.732 44.5427 102.383 43.168C103.023 41.8038 112.656 17.5216 112.656 17.5216H106.234L99.8121 34.1855L93.1171 17.5216L86.6636 17.4167Z" fill="#F1FFE5"/>
<path fill-rule="evenodd" clip-rule="evenodd" d="M7.95115 42.5384V30.5652H15.7059V36.5781L25.8742 30.5652L34.8358 25.266L26.7977 20.5123L15.7059 13.9538V20.5123H7.95115V8.47618L0.395752 12.873V20.5123V25.5073V30.5652V38.1521L7.95115 42.5384ZM14.8245 4.47812L42.5905 20.5123H43.9127V12.873L33.0309 6.54536L22.149 0.22821L14.8245 4.47812ZM42.2023 30.5652L14.688 46.4525L22.149 50.7864L33.0309 44.4692L43.9127 38.1521V30.5652H42.2023Z" fill="#F1FFE5"/>
<path d="M42.0134 9.23175V5.77935H40.7227V5.32812H43.8183V5.77935H42.5276V9.23175H42.0134ZM44.3429 9.23175V5.32812H45.109L46.0324 8.08794C46.1164 8.35028 46.1793 8.53917 46.2213 8.66509C46.2633 8.52867 46.3367 8.3188 46.4312 8.04597L47.3756 5.32812H48.0682V9.23175H47.5645V5.95774L46.4312 9.23175H45.959L44.8361 5.90527V9.23175H44.3429Z" fill="#F1FFE5"/>
<path d="M262.62 60.5664V55.8023H260.836V55.1622H265.118V55.8023H263.334V60.5664H262.62ZM265.842 60.5664V55.1622H266.912L268.192 58.9924C268.308 59.3492 268.392 59.6115 268.444 59.7899C268.507 59.5905 268.612 59.3072 268.738 58.9189L270.039 55.1622H270.994V60.5664H270.312V56.0437L268.728 60.5664H268.088L266.524 55.9702V60.5664H265.842Z" fill="#F1FFE5"/>
<path d="M262.096 15.9267V12.0755H263.47C263.901 12.0755 264.216 12.149 264.436 12.3064C264.646 12.4533 264.751 12.7366 264.751 13.1564C264.751 13.702 264.52 14.0483 264.058 14.1847C264.058 14.1847 264.583 15.1082 264.614 15.1711L265.013 15.9267H264.216L263.523 14.6779C263.449 14.552 263.345 14.3946 263.271 14.3211C263.271 14.3211 263.061 14.3211 262.883 14.3211H262.746V15.9267H262.096ZM263.554 10.512C264.52 10.512 265.391 10.9002 266.02 11.5298C266.65 12.1595 267.038 13.0409 267.038 13.9958C267.038 14.9613 266.65 15.8322 266.02 16.4618C265.391 17.0915 264.52 17.4902 263.554 17.4902C262.589 17.4902 261.718 17.0915 261.088 16.4618C260.459 15.8322 260.071 14.9613 260.071 13.9958C260.071 13.0409 260.459 12.1595 261.088 11.5298C261.718 10.9002 262.589 10.512 263.554 10.512ZM265.653 11.8971C265.118 11.3619 264.373 11.0261 263.554 11.0261C262.736 11.0261 261.991 11.3619 261.456 11.8971C260.91 12.4323 260.585 13.1773 260.585 13.9958C260.585 14.8248 260.91 15.5594 261.456 16.1051C261.991 16.6402 262.736 16.9655 263.554 16.9655C264.373 16.9655 265.118 16.6402 265.653 16.1051C266.188 15.5594 266.524 14.8248 266.524 13.9958C266.524 13.1773 266.188 12.4323 265.653 11.8971ZM262.746 13.702H263.229C263.554 13.702 263.775 13.6705 263.89 13.6076C264.006 13.5446 264.069 13.4082 264.069 13.2088C264.069 13.0199 264.016 12.8835 263.922 12.8206C263.827 12.7576 263.607 12.7261 263.261 12.7261H262.746V13.702Z" fill="#F1FFE5"/>
<path fill-rule="evenodd" clip-rule="evenodd" d="M56.442 40.8489V10.1132L73.1059 10.2496C73.1059 10.2496 77.0724 10.1132 79.2551 12.1594C81.4378 14.2057 82.5291 15.7062 82.3927 18.9907C82.2563 22.2648 82.1199 34.5633 82.1199 34.5633C82.1199 34.5633 81.5742 36.8823 79.8008 38.5298C78.0274 40.1668 76.6212 40.9224 73.1793 41.0168C69.7269 41.1218 56.442 40.8489 56.442 40.8489ZM62.9271 35.5916V15.5698L71.6053 15.4334C71.6053 15.4334 73.62 15.4019 74.5435 16.2204C75.4669 17.0389 75.9706 18.1722 75.9391 19.2636C75.9076 20.3549 75.9076 32.6534 75.9076 32.6534C75.9076 32.6534 75.9706 34.0176 74.7743 34.9095C73.5886 35.791 72.6232 35.728 71.0176 35.7595C69.4121 35.791 62.9271 35.5916 62.9271 35.5916Z" fill="#F1FFE5"/>
<path fill-rule="evenodd" clip-rule="evenodd" d="M117.095 40.8804L117.032 17.5217H123.077L123.045 18.8229C123.045 18.8229 126.497 17.6581 128.817 17.2488C131.136 16.8396 133.874 17.6581 134.483 18.2352C135.102 18.8229 135.407 19.4315 135.889 19.1901C136.361 18.9593 142.406 16.7346 145.176 17.2488C147.946 17.763 149.006 18.7179 149.615 19.8407C150.234 20.9741 150.37 22.4012 150.37 24.2481C150.37 26.0949 150.36 40.9749 150.36 40.9749L144.767 40.9224L144.704 23.6184C144.704 23.6184 144.84 22.2018 143.319 22.1179C141.797 22.0339 138.555 22.4641 137.873 22.7999C137.19 23.1462 136.949 23.2826 136.897 24.1536C136.844 25.0246 136.792 41.0063 136.792 41.0063L130.821 41.0483L130.884 23.7234C130.884 23.7234 131.125 22.0864 128.764 22.0549C126.414 22.0129 124.273 22.737 123.853 22.9573C123.423 23.1777 123.16 23.3141 123.16 24.1746C123.16 25.0246 123.066 40.8699 123.066 40.8699L117.095 40.8804Z" fill="#F1FFE5"/>
<path fill-rule="evenodd" clip-rule="evenodd" d="M156.95 24.6468L162.48 24.3425L162.543 22.737C162.543 22.737 162.511 22.3382 162.858 22.2018C163.194 22.0654 163.246 22.0864 163.813 22.0654C164.379 22.0549 170.487 22.0864 170.487 22.0864C170.487 22.0864 170.864 22.0339 171.116 22.2543C171.379 22.4746 171.463 23.0098 171.442 23.7654C171.431 24.5104 171.379 27.2912 171.379 27.2912C171.379 27.2912 164.274 26.8505 162.868 26.9554C161.473 27.0603 158.744 27.3961 157.642 28.8338C156.551 30.2714 156.415 31.667 156.488 34.1645C156.551 36.6515 156.173 38.4354 157.957 39.7681C159.731 41.0903 161.032 41.3631 162.564 41.3002C164.107 41.2267 168.619 40.807 169.637 40.6391C170.665 40.4712 171.588 39.9885 171.588 39.9885L171.567 40.9434L177.444 40.9119L177.171 21.6666C177.171 21.6666 177.203 19.7568 175.366 18.5186C173.519 17.2908 172.627 17.3223 170.686 17.3223C168.734 17.3223 163.036 17.2908 162.249 17.3223C161.462 17.3643 159.175 17.8365 158.22 18.9278C157.254 20.0296 156.95 21.5617 156.918 22.5166C156.887 23.4715 156.95 24.6468 156.95 24.6468ZM162.197 32.1497C162.197 32.1497 162.123 31.5411 162.48 31.2578C162.847 30.985 163.099 31.0584 163.718 31.0584C164.327 31.0584 170.476 31.0269 170.476 31.0269C170.476 31.0269 171.011 31.0269 171.232 31.1738C171.452 31.3312 171.588 32.3071 171.567 33.346C171.557 34.3849 171.588 35.5182 171.295 35.7595C171.011 35.9904 165.418 36.5361 164.726 36.641C164.023 36.7459 162.637 36.7459 162.396 36.1688C162.165 35.5812 162.197 32.1497 162.197 32.1497Z" fill="#F1FFE5"/>
<path fill-rule="evenodd" clip-rule="evenodd" d="M195.808 40.9119L195.766 35.9904L191.128 36.0324C191.128 36.0324 190.582 36.0324 190.309 35.7596C190.036 35.4763 189.826 34.3849 189.858 32.0973C189.9 29.8097 189.858 22.6006 189.858 22.6006L195.944 22.6426L195.913 17.5532L189.9 17.4797V12.5582L184.055 12.6002L184.16 35.2769C184.16 35.2769 183.992 37.3966 184.947 38.5929C185.902 39.7891 187.476 41.1533 190.855 41.1533C194.234 41.1533 195.808 41.1008 195.808 41.1008V40.9119Z" fill="#F1FFE5"/>
<path fill-rule="evenodd" clip-rule="evenodd" d="M202.387 40.807L202.114 13.9644L207.917 17.3748L208.096 40.807H202.387Z" fill="#F1FFE5"/>
<path fill-rule="evenodd" clip-rule="evenodd" d="M214.413 17.3643V22.4852H226.155L213.731 36.3472V40.7965L233.742 40.933L233.679 35.875L222.126 35.8016L233.815 21.9395V17.4273L214.413 17.3643Z" fill="#F1FFE5"/>
<path fill-rule="evenodd" clip-rule="evenodd" d="M259.493 33.9967L253.69 34.5108V35.6337C253.69 35.6337 253.711 35.854 253.397 36.1164C253.092 36.3682 252.494 36.3682 252.494 36.3682L245.421 36.3367C245.421 36.3367 244.981 36.3157 244.823 36.0429C244.676 35.7701 244.687 35.5182 244.687 35.5182L244.708 31.1424L259.399 31.0899L259.378 21.8031C259.378 21.8031 259.378 20.0926 257.71 18.5606C256.031 17.018 253.911 17.3643 252.788 17.3223C251.655 17.2908 245.306 17.2908 244.11 17.3223C242.914 17.3643 241.381 17.3958 240.049 19.0328C238.716 20.6698 238.674 21.971 238.674 24.1537C238.674 26.3468 238.716 34.7837 238.643 35.938C238.58 37.1028 238.884 38.8132 239.944 39.7052C241.004 40.5866 242.022 41.2687 245.338 41.3422C248.654 41.4051 253.061 41.3002 254.32 41.3002C255.59 41.3002 257.531 40.5552 258.392 39.4219C259.242 38.299 259.483 37.4071 259.514 36.3157C259.546 35.2244 259.493 33.9967 259.493 33.9967ZM253.533 27.3017H244.655L244.624 22.9679C244.624 22.9679 244.624 22.5481 245.033 22.3173C245.442 22.0759 245.957 22.0759 245.957 22.0759H252.547C252.547 22.0759 253.103 22.0759 253.334 22.3592C253.565 22.6426 253.554 23.0413 253.544 23.5031C253.533 23.9753 253.533 27.3017 253.533 27.3017Z" fill="#F1FFE5"/>
<path d="M57.8901 75.5408H59.6845V69.6959H61.0277C63.1999 69.6959 64.4486 68.2163 64.4486 65.5824C64.4486 62.8646 63.0845 61.4794 61.2061 61.4794H57.8901V75.5408ZM59.6845 63.2843H60.9438C62.0246 63.2843 62.6332 64.0923 62.6332 65.5404C62.6332 67.1669 62.0561 67.933 60.8283 67.933H59.6845V63.2843ZM71.3534 67.2299H67.5967V63.4102H71.5423V61.4794H65.8233V75.5408H71.5738L71.7942 73.652H67.5967V69.1292H71.3534V67.2299ZM75.9601 69.3811C77.3558 69.3811 77.7021 70.1261 77.7021 72.057V72.5502C77.7021 73.7359 77.7126 74.9007 77.8805 75.5408H79.6224C79.5175 74.7958 79.4755 74.0717 79.4755 72.5711V72.015C79.4755 69.9792 79.0767 68.9928 78.1218 68.4891C78.7514 68.1953 79.6434 67.3034 79.6434 65.2571C79.6434 62.8331 78.5206 61.4794 76.4743 61.4794H73.1059V75.5408H74.8793V69.3811H75.9601ZM74.8793 63.2843H76.212C77.3348 63.2843 77.8385 64.0713 77.8385 65.341C77.8385 66.8311 77.3348 67.5972 76.0441 67.5972H74.8793V63.2843ZM81.3014 75.5408H83.0748V69.2762H86.7895V67.3873H83.0748V63.4102H87.0309V61.4794H81.3014V75.5408ZM93.8832 67.2299H90.137V63.4102H94.0721V61.4794H88.3531V75.5408H94.1036L94.3239 73.652H90.137V69.1292H93.8832V67.2299ZM100.452 71.5218C100.4 72.1199 100.242 73.9248 98.9201 73.9248C97.43 73.9248 97.1887 71.2699 97.1887 68.5101C97.1887 65.467 97.5035 63.1374 98.9831 63.1374C100.368 63.1374 100.421 65.0262 100.431 65.4985H102.226C102.194 64.4701 101.974 61.2695 99.0041 61.2695C96.3597 61.2695 95.3313 64.0713 95.3313 68.4681C95.3313 72.0989 95.6566 75.7717 98.8782 75.7717C101.932 75.7717 102.194 72.2668 102.247 71.5218H100.452ZM105.384 75.5408H107.168V63.4102H109.676V61.4794H102.876V63.4102H105.384V75.5408ZM110.841 61.4794V75.5408H112.625V61.4794H110.841ZM116.361 75.5408V70.9761C116.361 68.4472 116.361 66.296 116.277 64.554H116.298C116.434 65.1732 116.875 66.6003 119.624 75.5408H121.618V61.4794H120.002V65.8762C120.002 68.1743 120.012 70.2521 120.096 72.015H120.086C119.949 71.3539 119.488 69.9163 116.822 61.4794H114.744V75.5408H116.361ZM130.317 67.7021H126.833V69.591H128.544V70.336C128.544 72.6971 128.208 73.9248 126.938 73.9248C125.521 73.9248 125.165 71.931 125.165 68.5731C125.165 65.362 125.605 63.1374 127.043 63.1374C128.407 63.1374 128.512 64.7324 128.544 65.2781H130.317C130.286 64.4491 130.118 61.2695 127.095 61.2695C124.65 61.2695 123.307 63.5571 123.307 68.5731C123.307 72.9699 124.105 75.7717 126.55 75.7717C127.662 75.7717 128.69 75.6563 129.509 74.3446C130.286 73.0853 130.296 70.7662 130.317 69.528V67.7021ZM139.887 71.6792L140.569 75.5408H142.448L139.688 61.4794H137.369L134.651 75.5408H136.445L137.106 71.6792H139.887ZM137.432 69.7798C137.914 67.041 138.324 64.7954 138.46 63.5152H138.502C138.68 64.7744 139.058 66.8311 139.562 69.7798H137.432ZM144.19 75.5408H145.973V63.4102H148.481V61.4794H141.682V63.4102H144.19V75.5408ZM149.646 75.5408H151.441V69.0663H154.557V75.5408H156.352V61.4794H154.557V67.1879H151.441V61.4794H149.646V75.5408ZM158.45 75.5408H164.054L164.243 73.673H160.234V61.4794H158.45V75.5408ZM170.833 67.2299H167.076V63.4102H171.022V61.4794H165.303V75.5408H171.053L171.274 73.652H167.076V69.1292H170.833V67.2299ZM174.495 75.5408H176.289V63.4102H178.797V61.4794H171.987V63.4102H174.495V75.5408ZM179.952 61.4794V75.5408H181.746V61.4794H179.952ZM188.567 71.5218C188.515 72.1199 188.368 73.9248 187.035 73.9248C185.555 73.9248 185.314 71.2699 185.314 68.5101C185.314 65.467 185.618 63.1374 187.098 63.1374C188.483 63.1374 188.536 65.0262 188.557 65.4985H190.34C190.309 64.4701 190.089 61.2695 187.119 61.2695C184.474 61.2695 183.457 64.0713 183.457 68.4681C183.457 72.0989 183.771 75.7717 187.003 75.7717C190.057 75.7717 190.309 72.2668 190.361 71.5218H188.567ZM196.846 75.5408V70.9761C196.846 68.4472 196.846 66.296 196.762 64.554H196.773C196.909 65.1732 197.361 66.6003 200.099 75.5408H202.093V61.4794H200.477V65.8762C200.477 68.1743 200.498 70.2521 200.582 72.015H200.561C200.425 71.3539 199.963 69.9163 197.308 61.4794H195.22V75.5408H196.846ZM204.098 61.4794V71.2909C204.098 73.9248 204.895 75.7717 207.508 75.7717C210.163 75.7717 210.971 73.7989 210.971 71.2699V61.4794H209.155V71.228C209.155 72.739 208.872 73.9248 207.539 73.9248C206.175 73.9248 205.881 72.5187 205.881 71.228V61.4794H204.098ZM214.57 75.5408H216.354V63.4102H218.862V61.4794H212.062V63.4102H214.57V75.5408ZM222.871 69.3811C224.266 69.3811 224.613 70.1261 224.613 72.057V72.5502C224.613 73.7359 224.634 74.9007 224.801 75.5408H226.543C226.438 74.7958 226.386 74.0717 226.386 72.5711V72.015C226.386 69.9792 225.998 68.9928 225.043 68.4891C225.672 68.1953 226.554 67.3034 226.554 65.2571C226.554 62.8331 225.431 61.4794 223.385 61.4794H220.027V75.5408H221.8V69.3811H222.871ZM221.8 63.2843H223.133C224.256 63.2843 224.749 64.0713 224.749 65.341C224.749 66.8311 224.256 67.5972 222.955 67.5972H221.8V63.2843ZM228.212 61.4794V75.5408H230.006V61.4794H228.212ZM233.616 75.5408H235.41V63.4102H237.918V61.4794H231.108V63.4102H233.616V75.5408ZM239.073 61.4794V75.5408H240.867V61.4794H239.073ZM246.24 61.2695C243.9 61.2695 242.578 63.4102 242.578 68.3842C242.578 73.4631 243.721 75.7717 246.156 75.7717C248.769 75.7717 249.839 73.4316 249.839 68.4052C249.839 63.5571 248.716 61.2695 246.24 61.2695ZM246.208 63.1374C247.52 63.1374 247.992 64.8164 247.992 68.3842C247.992 72.036 247.552 73.9248 246.208 73.9248C244.907 73.9248 244.414 71.931 244.414 68.3632C244.414 64.9843 244.907 63.1374 246.208 63.1374ZM253.145 75.5408V70.9761C253.145 68.4472 253.145 66.296 253.061 64.554H253.082C253.218 65.1732 253.659 66.6003 256.408 75.5408H258.402V61.4794H256.786V65.8762C256.786 68.1743 256.796 70.2521 256.88 72.015H256.87C256.733 71.3539 256.272 69.9163 253.606 61.4794H251.529V75.5408H253.145Z" fill="#F1FFE5"/>
</g>
<defs>
<clipPath id="clip0_2_161">
<rect width="270.61" height="75.5435" fill="white" transform="translate(0.390015 0.228271)"/>
</clipPath>
</defs>
</svg>
