<svg width="33" height="33" viewBox="0 0 33 33" fill="none" xmlns="http://www.w3.org/2000/svg">
<path d="M23.5714 3.04761H10.2381C6.55618 3.04761 3.57141 6.03238 3.57141 9.71427V23.0476C3.57141 26.7295 6.55618 29.7143 10.2381 29.7143H23.5714C27.2533 29.7143 30.2381 26.7295 30.2381 23.0476V9.71427C30.2381 6.03238 27.2533 3.04761 23.5714 3.04761Z" stroke="#F6F6F6" stroke-width="2.5" stroke-linecap="round" stroke-linejoin="round"/>
<path d="M22.2381 15.5408C22.4027 16.6504 22.2131 17.7837 21.6965 18.7795C21.1798 19.7752 20.3623 20.5827 19.3603 21.087C18.3583 21.5914 17.2227 21.7669 16.1152 21.5887C15.0076 21.4105 13.9845 20.8876 13.1913 20.0943C12.398 19.3011 11.8751 18.2779 11.6969 17.1704C11.5187 16.0628 11.6942 14.9273 12.1986 13.9253C12.7029 12.9232 13.5104 12.1058 14.5061 11.5891C15.5018 11.0724 16.6351 10.8829 17.7448 11.0474C18.8767 11.2153 19.9246 11.7427 20.7337 12.5518C21.5429 13.361 22.0703 14.4089 22.2381 15.5408Z" stroke="#F6F6F6" stroke-width="2.5" stroke-linecap="round" stroke-linejoin="round"/>
<path d="M24.2382 9.04761H24.2515" stroke="#F6F6F6" stroke-width="2.5" stroke-linecap="round" stroke-linejoin="round"/>
</svg>
