<svg width="129" height="128" viewBox="0 0 129 128" fill="none" xmlns="http://www.w3.org/2000/svg">
<path fill-rule="evenodd" clip-rule="evenodd" d="M24.5346 56.2883C26.3534 56.3209 26.3335 56.4112 27.5261 55.6455C28.3424 55.1265 29.1415 54.5808 29.922 54.0093C31.1399 53.1161 31.2621 52.7383 29.1039 52.2562C27.3468 51.8637 26.8143 51.7223 24.9549 52.7821C22.3651 54.259 14.7869 59.5608 7.07332 66.9244C5.08647 67.2744 3.45025 68.0347 2.80745 68.5016C2.16398 68.9684 2.11816 69.0906 2.74901 70.0203C3.61095 71.2926 3.64415 71.3211 5.07253 70.6352C5.8322 70.2693 6.95711 69.6119 7.94986 68.8515C12.3326 68.0347 22.0915 67.9763 34.1294 71.365C35.1959 71.6644 35.4921 71.8318 34.7138 70.1378C33.9687 68.5155 34.0564 68.6032 31.9673 68.0925C24.2025 66.1913 15.8972 65.9304 11.1054 66.3972C15.9557 62.3657 19.7428 59.1517 24.5346 56.2883Z" fill="#F1FFE5"/>
<path fill-rule="evenodd" clip-rule="evenodd" d="M44.7323 51.8618C42.3663 51.9933 40.5687 53.2643 37.9829 55.5433C36.6528 56.7124 35.356 57.9191 34.0942 59.1617C32.5556 58.756 31.2441 58.3383 30.9705 58.2168C30.5761 58.0414 30.3569 58.0853 30.4446 58.655C30.5748 59.503 30.7979 60.3238 32.3106 60.9765C31.0919 62.2538 29.9142 63.5695 28.7792 64.9217C28.2951 65.5001 28.2971 65.5791 28.9545 66.5871C29.5588 67.5141 29.8835 67.3422 30.2693 66.9384C31.5821 65.5665 33.3113 63.6799 35.2371 61.7781C36.4861 62.0443 37.9225 62.2064 38.7213 62.3093C38.3978 62.7162 38.0886 63.1344 37.7943 63.563C37.2638 64.34 37.3561 64.8785 37.9258 65.7982C38.4956 66.7193 39.1968 67.5075 41.3005 66.6748C43.4042 65.8421 45.245 64.5711 45.6833 63.8698C46.1215 63.1686 46.1654 63.0371 45.0697 63.3439C43.974 63.65 42.5715 64.3074 40.3801 64.6149C40.6889 64.0259 41.2627 63.2941 41.9367 62.5543C43.7834 62.6373 46.4834 62.5988 48.7074 61.5031C50.1324 60.8012 49.8469 59.5309 49.0142 58.3037C48.1814 57.0766 47.3487 56.2 44.8067 57.2519C43.3465 57.8562 41.8431 58.9824 40.4871 60.3291C39.4797 60.2089 38.0307 60.0402 37.2332 59.8802C38.9996 58.2692 40.8589 56.7718 42.6725 55.7179C44.4601 54.6793 45.4342 54.8414 45.7842 55.6741C46.0213 56.2365 46.4589 56.4278 46.9237 56.0685C47.4065 55.696 47.7352 55.0167 47.6907 54.3154C47.5904 52.7058 46.5704 51.7595 44.7323 51.8618ZM46.1727 58.8144C47.8381 58.1132 48.7359 59.4977 46.9543 59.926C46.0186 60.1505 45.071 60.3909 44.0929 60.4559C44.897 59.758 45.7623 58.9871 46.1727 58.8144ZM82.912 52.8406C82.6603 53.0385 81.5759 54.1408 80.1336 55.6409C78.2271 55.9138 76.2868 56.2273 74.3218 56.5805C72.9227 56.8322 73.2155 57.1051 73.5037 58.0414C73.7375 58.8011 73.9327 59.1086 74.7309 58.918C75.4481 58.7467 76.1872 58.586 76.9355 58.4306C74.4699 59.8875 70.3362 62.0756 66.6806 64.1773C67.9443 62.8694 69.2498 61.6026 70.5952 60.3789C71.1802 59.853 71.0049 59.677 70.4199 58.6842C69.7844 57.6032 69.718 57.2818 68.9012 57.9246C68.0831 58.5674 63.9918 62.8917 61.7719 65.346C61.2174 65.9596 61.4213 66.4563 62.181 67.216C62.9407 67.9757 63.116 68.2094 64.46 67.4497C65.7722 66.7093 71.8223 63.1307 75.3478 60.6777C73.1777 62.9807 71.1636 65.1402 70.291 66.1064C69.7359 66.7186 69.8813 66.9245 70.641 67.625C71.4306 68.3542 71.576 68.6185 72.92 67.8588C74.0821 67.2027 80.5228 62.7389 84.4201 59.9539C82.8078 61.4693 80.809 63.498 79.3985 65.3467C78.8938 66.0067 78.9304 66.1648 79.69 67.042C80.4497 67.9192 80.625 67.977 81.3269 67.2757C82.0275 66.5738 86.0596 63.0099 89.682 61.4905C87.988 63.8864 86.9946 65.0552 86.4693 65.6973C85.9427 66.3408 86.1765 66.6768 87.1699 67.4511C87.9767 68.0799 88.0611 67.9816 89.0479 67.3561C90.5081 66.4297 92.2293 65.7637 93.9386 65.0525C94.0322 66.198 94.5754 67.5088 95.6339 67.5088C96.8956 67.5088 101.652 64.8061 106.234 61.6127C106.595 62.0749 107.008 62.4156 107.381 62.7091C105.619 63.5059 104.022 64.3074 102.931 64.9376C102.045 65.4489 101.938 65.4045 102.346 66.281C102.756 67.1575 102.576 67.2472 103.281 67.3329C109.212 68.0553 111.557 66.1641 111.557 64.2942C111.557 63.4714 111.077 62.9036 110.598 62.4926C111.663 61.9806 113.174 61.4726 114.488 60.9746C114.935 62.723 117.123 62.8718 117.29 64.0458C117.433 65.0452 114.142 65.4629 112.855 65.2291C111.57 64.9954 112.023 65.7298 112.797 66.3979C113.652 67.1356 113.845 67.5779 115.66 67.4497C118.232 67.2671 120.744 66.281 120.744 64.6441C120.744 62.3657 118.078 61.4162 117.647 60.4958C117.3 59.7527 118.408 59.3782 119.809 59.6192C120.366 60.2906 120.234 60.2966 121.453 60.0794C121.879 60.0057 122.302 59.9217 122.724 59.8277C123.042 59.7507 123.009 59.7507 122.939 59.3563C122.895 59.09 122.835 58.8266 122.76 58.5674C122.584 57.9538 122.555 57.8661 118.932 57.5739C116.646 57.3893 114.64 58.4591 114.431 60.0954C113.048 60.523 111.157 61.1027 109.628 61.7349C108.022 60.4075 108.111 59.5535 109.891 59.5535C111.293 59.5535 112.124 59.6777 112.455 59.7354C113.199 59.8669 113.463 59.5893 113.332 58.742C113.219 58.0195 113.228 58.0096 112.652 57.7559C112.104 57.5148 110.877 57.2811 110.234 57.2811C106.48 57.2811 105.017 59.074 105.76 60.8311C103.81 61.9959 99.3234 64.1979 98.2636 64.6441C97.2662 65.0645 96.6971 65.4303 96.9288 63.9362C99.7796 62.976 104.399 61.4075 104.399 59.9698C104.399 58.1583 102.879 57.6908 101.244 57.6908C97.4103 57.6908 94.7574 61.1346 94.09 63.571C93.3635 63.82 92.234 64.081 91.3767 64.3519C91.9757 63.5338 92.7294 61.9507 93.1304 60.9626C93.5388 59.9539 93.5388 59.94 92.9538 59.3403C92.3562 58.7274 92.3263 58.742 91.7266 58.8589C90.7943 59.0415 88.9223 59.9108 87.6958 60.7289C88.5126 59.9108 88.6308 59.7354 88.9814 59.3264C89.3314 58.9173 89.0983 58.6251 88.5133 58.0408C87.8426 57.3694 87.8247 57.145 87.2967 57.4863C85.3033 58.5906 80.1403 61.7123 75.1399 64.585C76.3525 63.3346 79.9165 59.8357 82.319 57.4989C88.7703 56.5945 96.037 56.2943 103.717 56.872C105.019 56.9703 104.535 56.463 103.892 55.6449C103.249 54.8268 103.073 54.5538 101.964 54.4761C97.043 54.1328 91.1974 54.3407 84.8398 55.0439C85.1107 54.6827 84.9148 54.4184 84.4327 53.5989C83.7952 52.5185 83.7301 52.1971 82.912 52.8406ZM103.853 66.0771C104.929 65.3832 107.093 64.3572 108.353 63.6553C109.322 64.7099 107.757 65.7086 103.853 66.0771ZM102.058 59.1557C103.522 59.4486 101.551 60.6299 97.5198 62.2887C98.6593 60.5755 100.776 58.9001 102.058 59.1557Z" fill="#F1FFE5"/>
<path fill-rule="evenodd" clip-rule="evenodd" d="M75.3969 53.8161C74.9699 52.7264 74.9274 52.7072 74.3683 52.7072C67.1806 52.7072 60.7459 53.4648 54.2488 54.6349C53.0861 54.8441 53.2627 55.0579 53.711 55.9743C54.1705 56.9133 54.5231 56.9345 54.9886 56.8621C55.7841 56.7386 56.6454 56.5839 57.5611 56.4179C56.5656 57.2997 55.5959 58.2103 54.6533 59.1485C53.6147 59.2919 52.5809 59.4679 51.5535 59.6764C50.5541 59.8829 50.659 59.9566 51.0003 60.9507C51.2586 61.7024 51.426 61.9687 51.8456 61.897L52.0156 61.8691C49.9073 64.1275 47.9078 66.4756 46.498 68.4053C45.9887 69.1019 45.9084 69.4599 46.3626 70.7255C46.9018 72.2276 47.1116 72.296 47.7504 71.456C49.5991 69.0229 53.1312 64.9118 56.581 61.3046C58.8022 61.1413 61.1576 61.0204 64.1804 61.1426C65.1214 61.1811 65.0994 60.8438 64.6293 59.6047C64.2222 58.5309 64.1167 58.4439 63.5323 58.4499C62.3948 58.4598 60.8734 58.5269 59.2 58.6577C60.461 57.4312 61.6431 56.3628 62.6478 55.5725C64.4945 55.362 67.1374 55.1562 69.1468 55.1734C69.607 55.9955 69.8992 55.9982 70.6589 55.8873C71.4199 55.7771 73.4373 55.5626 74.5795 55.3375C75.8026 55.0984 75.8538 54.9802 75.3969 53.8161Z" fill="#F1FFE5"/>
<path fill-rule="evenodd" clip-rule="evenodd" d="M59.5752 74.4024C59.4238 74.6162 59.1376 74.9469 58.9145 74.9469C58.7279 74.9469 58.6489 74.7962 58.6489 74.5306C58.6489 74.1142 58.9072 72.0623 58.9935 71.8186C58.8713 71.8538 58.7565 71.8837 58.6343 71.9182V71.804L59.467 71.4162C59.3302 72.0829 59.0792 74.0491 59.0792 74.3865C59.0792 74.5385 59.1151 74.5877 59.1795 74.5877C59.2299 74.5877 59.3302 74.5086 59.5022 74.3294L59.5752 74.4024ZM59.3601 70.1106C59.4458 70.1106 59.6038 70.1611 59.6038 70.44C59.6038 70.6485 59.4962 70.7926 59.3236 70.7926C59.2087 70.7926 59.0652 70.7342 59.0652 70.4759C59.0659 70.1897 59.216 70.1106 59.3601 70.1106ZM63.0914 74.4881C62.8902 74.6952 62.6538 74.9469 62.3882 74.9469C62.1518 74.9469 62.1086 74.7172 62.1086 74.4515C62.1086 73.9781 62.4247 72.3286 62.4247 72.0988C62.4247 72.0118 62.3888 71.9899 62.3457 71.9899C61.9074 71.9899 60.8814 73.8924 60.7307 74.8314L60.3356 74.8752C60.4578 73.834 60.6298 72.7443 60.7373 71.8325C60.6151 71.8611 60.5009 71.8896 60.3781 71.9182V71.804L61.2533 71.4162C61.1245 72.0258 61.0023 72.901 60.9087 73.6407H60.9233C61.1816 72.8731 62.0429 71.4879 62.6312 71.4879C62.8318 71.4879 62.8895 71.5955 62.8895 71.8392C62.8895 72.1619 62.5382 73.9415 62.5382 74.3659C62.5382 74.502 62.5887 74.5877 62.6744 74.5877C62.7746 74.5877 62.8968 74.4801 62.9978 74.3865L63.0914 74.4881ZM63.9387 71.6034H64.2475L64.3697 70.6552L64.8073 70.4905L64.6566 71.6034H65.2668V71.8186H64.628C64.4275 73.2675 64.3697 73.8273 64.3697 74.2503C64.3697 74.5226 64.4341 74.5877 64.5636 74.5877C64.7143 74.5877 64.8432 74.4515 65.0948 74.1726L65.1885 74.2583C64.9514 74.6096 64.715 74.9469 64.3704 74.9469C64.1552 74.9469 63.9401 74.7457 63.9401 74.431C63.9401 74.0006 64.1479 72.4063 64.2203 71.8186H63.9401V71.6034H63.9387ZM67.583 74.0498C67.3028 74.4456 66.8373 74.9476 66.3213 74.9476C65.7038 74.9476 65.6028 74.4031 65.6028 73.9137C65.6028 72.5145 66.6002 71.4168 67.3108 71.4168C67.6262 71.4168 67.7696 71.6672 67.7696 71.9979C67.7696 72.7589 66.8293 73.4196 66.0903 73.5903C66.0736 73.7262 66.0667 73.8631 66.0697 74C66.0697 74.4303 66.2204 74.6601 66.486 74.6601C66.8592 74.6601 67.2603 74.2297 67.4834 73.9635L67.583 74.0498ZM67.0445 71.7761C66.8798 71.7761 66.7576 71.8046 66.6076 71.9474C66.3273 72.221 66.1487 72.9242 66.1122 73.3897C66.8008 73.1965 67.3393 72.6374 67.3393 72.0915C67.3387 71.8837 67.2171 71.7761 67.0445 71.7761ZM68.358 71.8046L69.2332 71.4168C69.134 71.917 69.0479 72.4196 68.9749 72.9242H68.9888C69.2106 72.3857 69.635 71.4168 70.2014 71.4168C70.2871 71.4168 70.3661 71.4308 70.4737 71.4533L70.388 71.8837H70.23C69.7346 71.8837 69.4118 72.3857 69.117 73.0663C68.9238 73.5112 68.781 74.4084 68.7086 74.8314L68.3142 74.8752C68.4364 73.834 68.6083 72.7443 68.7159 71.8325L68.3567 71.9182V71.8046H68.358ZM73.1232 74.5166C72.9652 74.6747 72.7069 74.9469 72.4851 74.9469C72.2254 74.9469 72.2195 74.7032 72.2195 74.4595C72.2195 74.1574 72.2905 73.4827 72.3489 72.9953L72.3337 72.9813C72.0833 73.7271 71.5879 74.9476 70.9644 74.9476C70.5341 74.9476 70.3973 74.5027 70.3973 74.0153C70.3973 72.6732 71.3157 71.4175 72.2626 71.4175C72.4492 71.4175 72.5794 71.46 72.679 71.4885L72.9592 71.3458C72.837 72.1911 72.6504 73.741 72.6504 74.3732C72.6504 74.5239 72.6644 74.6249 72.75 74.6249C72.8224 74.6249 72.9798 74.4741 73.0442 74.4316L73.1232 74.5166ZM71.1211 74.5166C71.6245 74.5166 72.4857 72.1991 72.4857 71.8332C72.4857 71.7621 72.2626 71.7396 72.1185 71.7396C71.8828 71.7396 71.667 71.7821 71.495 71.9753C71.1151 72.4056 70.8283 73.4541 70.8283 74.0139C70.8276 74.3586 70.9053 74.5166 71.1211 74.5166ZM75.5058 73.82C75.3764 74.2012 74.8597 74.9469 74.3218 74.9469C73.784 74.9469 73.5828 74.3234 73.5828 73.6773C73.5828 72.5723 74.3365 71.4168 75.2323 71.4168C75.3617 71.4168 75.4554 71.4308 75.549 71.4593L75.4335 71.8471C75.3193 71.8332 75.1898 71.8046 74.9965 71.8106C74.6592 71.8106 74.5722 71.8611 74.4155 72.1048C74.2209 72.4056 74.0137 73.1387 74.0137 73.5896C74.0137 74.0345 74.0994 74.5518 74.4221 74.5518C74.8604 74.5518 75.2402 74.0485 75.377 73.7762L75.5058 73.82ZM76.3087 71.6034H76.6175L76.7397 70.6552L77.1779 70.4905L77.0272 71.6034H77.6368V71.8186H76.9973C76.7974 73.2675 76.739 73.8273 76.739 74.2503C76.739 74.5226 76.8041 74.5877 76.9336 74.5877C77.0843 74.5877 77.2125 74.4515 77.4641 74.1726L77.5578 74.2583C77.322 74.6096 77.0843 74.9469 76.7397 74.9469C76.5245 74.9469 76.3094 74.7457 76.3094 74.431C76.3094 74.0006 76.5179 72.4063 76.5896 71.8186H76.3094L76.3087 71.6034ZM79.1216 74.4024C78.9695 74.6162 78.6833 74.9469 78.4615 74.9469C78.2749 74.9469 78.1959 74.7962 78.1959 74.5306C78.1959 74.1142 78.4542 72.0623 78.5399 71.8186C78.4177 71.8538 78.3042 71.8837 78.182 71.9182V71.804L79.0147 71.4162C78.8772 72.0829 78.6269 74.0491 78.6269 74.3865C78.6269 74.5385 78.6621 74.5877 78.7265 74.5877C78.777 74.5877 78.8772 74.5086 79.0492 74.3294L79.1216 74.4024ZM78.9065 70.1106C78.9921 70.1106 79.1502 70.1611 79.1502 70.44C79.1502 70.6485 79.0426 70.7926 78.8699 70.7926C78.7544 70.7926 78.6116 70.7342 78.6116 70.4759C78.6123 70.1897 78.7624 70.1106 78.9065 70.1106ZM79.5878 71.8046L80.384 71.4168C80.384 72.4282 80.4836 73.6553 80.6137 74.409C81.0082 73.9422 81.6762 72.7595 81.6762 72.2416C81.6762 72.0198 81.5766 71.9547 81.2884 71.8046L81.5607 71.4168C81.8123 71.4739 82.0707 71.6824 82.0707 71.976C82.0707 72.6659 81.0228 74.2444 80.5998 74.8759L80.291 74.9469C80.0838 73.992 79.9178 72.221 79.9178 71.8332L79.5884 71.9188L79.5878 71.8046ZM84.3384 74.0498C84.0582 74.4456 83.5913 74.9476 83.0754 74.9476C82.4578 74.9476 82.3582 74.4031 82.3582 73.9137C82.3582 72.5145 83.3556 71.4168 84.0648 71.4168C84.3816 71.4168 84.5237 71.6672 84.5237 71.9979C84.5237 72.7589 83.5847 73.4196 82.8456 73.5903C82.8284 73.7261 82.821 73.8631 82.8237 74C82.8237 74.4303 82.9744 74.6601 83.2401 74.6601C83.6133 74.6601 84.0157 74.2297 84.2375 73.9635L84.3384 74.0498ZM83.7999 71.7761C83.6338 71.7761 83.5117 71.8046 83.3616 71.9474C83.0814 72.221 82.9027 72.9242 82.8662 73.3897C83.5548 73.1965 84.0934 72.6374 84.0934 72.0915C84.0934 71.8837 83.9712 71.7761 83.7999 71.7761ZM86.7064 71.6034C86.9933 71.6034 87.1148 71.5098 87.1653 71.0363C87.2589 69.9951 87.8114 69.6431 88.3207 69.6431H88.4715C88.4592 69.7764 88.4375 69.9087 88.4064 70.0389C88.3068 70.0236 88.1912 70.0024 88.0624 70.0024C87.7682 70.0024 87.7032 70.1531 87.6321 70.6771L87.5166 71.5304H88.1985V71.8186H87.4747L87.144 74.2869C86.9647 75.6435 86.7781 75.9018 86.0756 76.1455L86.047 76.0094C86.4415 75.8368 86.6141 75.4064 86.6991 74.5956C86.8 73.6633 86.9508 72.729 87.0663 71.8186H86.7071V71.6034H86.7064ZM89.2889 74.4024C89.1382 74.6162 88.852 74.9469 88.6288 74.9469C88.4436 74.9469 88.3646 74.7962 88.3646 74.5306C88.3646 74.1142 88.6229 72.0623 88.7085 71.8186C88.5863 71.8538 88.4728 71.8837 88.3506 71.9182V71.804L89.182 71.4162C89.0459 72.0829 88.7955 74.0491 88.7955 74.3865C88.7955 74.5385 88.8307 74.5877 88.8951 74.5877C88.9456 74.5877 89.0459 74.5086 89.2179 74.3294L89.2889 74.4024ZM89.0738 70.1106C89.1607 70.1106 89.3175 70.1611 89.3175 70.44C89.3175 70.6485 89.2099 70.7926 89.0386 70.7926C88.923 70.7926 88.7802 70.7342 88.7802 70.4759C88.7802 70.1897 88.931 70.1106 89.0738 70.1106ZM90.0645 71.6034H90.3733L90.4955 70.6552L90.9324 70.4905L90.7817 71.6034H91.3913V71.8186H90.7531C90.5519 73.2675 90.4948 73.8273 90.4948 74.2503C90.4948 74.5226 90.5586 74.5877 90.6881 74.5877C90.8388 74.5877 90.9683 74.4515 91.22 74.1726L91.3123 74.2583C91.0765 74.6096 90.8388 74.9469 90.4955 74.9469C90.2803 74.9469 90.0652 74.7457 90.0652 74.431C90.0652 74.0006 90.2724 72.4063 90.3454 71.8186H90.0645V71.6034ZM94.7999 74.4881C94.5987 74.6952 94.3616 74.9469 94.0967 74.9469C93.8596 74.9469 93.8164 74.7172 93.8164 74.4515C93.8164 73.9781 94.1318 72.3286 94.1318 72.0988C94.1318 72.0118 94.0966 71.9899 94.0528 71.9899C93.6159 71.9899 92.5899 73.8924 92.4379 74.8314L92.0434 74.8752C92.1656 73.834 92.3376 72.7443 92.4452 71.8325L92.0859 71.9182V71.804L92.9611 71.4162C92.833 72.0258 92.7108 72.901 92.6171 73.6407H92.6311C92.8894 72.8731 93.7507 71.4879 94.339 71.4879C94.5402 71.4879 94.5973 71.5955 94.5973 71.8392C94.5973 72.1619 94.2461 73.9415 94.2461 74.3659C94.2461 74.502 94.2952 74.5877 94.3822 74.5877C94.4818 74.5877 94.604 74.4801 94.7049 74.3865L94.7999 74.4881ZM97.298 74.0498C97.0178 74.4456 96.551 74.9476 96.035 74.9476C95.4174 74.9476 95.3178 74.4031 95.3178 73.9137C95.3178 72.5145 96.3152 71.4168 97.0245 71.4168C97.3412 71.4168 97.4846 71.6672 97.4846 71.9979C97.4846 72.7589 96.5443 73.4196 95.8053 73.5903C95.788 73.7261 95.7807 73.8631 95.7833 74C95.7833 74.4303 95.9341 74.6601 96.1997 74.6601C96.5729 74.6601 96.9753 74.2297 97.1971 73.9635L97.298 74.0498ZM96.7595 71.7761C96.5935 71.7761 96.4713 71.8046 96.3212 71.9474C96.041 72.221 95.8624 72.9242 95.8258 73.3897C96.5158 73.1965 97.0543 72.6374 97.0543 72.0915C97.0537 71.8837 96.9322 71.7761 96.7595 71.7761ZM99.6375 71.9188C99.4363 71.8538 99.2278 71.7761 98.9409 71.7761C98.5896 71.7761 98.2078 71.8697 98.2078 72.2416C98.2078 72.729 99.5498 73.2104 99.5498 73.8486C99.5498 74.5086 98.9263 74.9469 98.3373 74.9469C98.1221 74.9469 97.8499 74.9044 97.6553 74.7743L97.7277 74.3659C97.9003 74.4595 98.1294 74.5877 98.4814 74.5877C98.9183 74.5877 99.2271 74.3865 99.2271 74.0637C99.2271 73.4966 97.8857 73.0743 97.8857 72.4501C97.8857 71.79 98.5458 71.4162 99.0618 71.4162C99.255 71.4162 99.5352 71.4587 99.6362 71.5304V71.9188H99.6375ZM102.025 71.9188C101.824 71.8538 101.617 71.7761 101.329 71.7761C100.978 71.7761 100.597 71.8697 100.597 72.2416C100.597 72.729 101.939 73.2104 101.939 73.8486C101.939 74.5086 101.314 74.9469 100.725 74.9469C100.511 74.9469 100.238 74.9044 100.045 74.7743L100.116 74.3659C100.288 74.4595 100.517 74.5877 100.869 74.5877C101.308 74.5877 101.616 74.3865 101.616 74.0637C101.616 73.4966 100.274 73.0743 100.274 72.4501C100.274 71.79 100.934 71.4162 101.45 71.4162C101.645 71.4162 101.924 71.4587 102.025 71.5304L102.025 71.9188ZM106.208 71.9188C106.007 71.8538 105.8 71.7761 105.512 71.7761C105.16 71.7761 104.78 71.8697 104.78 72.2416C104.78 72.729 106.121 73.2104 106.121 73.8486C106.121 74.5086 105.498 74.9469 104.909 74.9469C104.694 74.9469 104.421 74.9044 104.228 74.7743L104.299 74.3659C104.472 74.4595 104.701 74.5877 105.053 74.5877C105.491 74.5877 105.8 74.3865 105.8 74.0637C105.8 73.4966 104.458 73.0743 104.458 72.4501C104.458 71.79 105.118 71.4162 105.634 71.4162C105.828 71.4162 106.107 71.4587 106.208 71.5304V71.9188ZM108.252 71.4168C108.862 71.4168 109.035 72.0404 109.035 72.5789C109.035 73.5843 108.452 74.9469 107.434 74.9469C106.874 74.9469 106.673 74.3579 106.673 73.8844C106.672 73.0949 107.218 71.4168 108.252 71.4168ZM107.641 74.6607C107.807 74.6607 107.95 74.6023 108.072 74.4808C108.445 74.1082 108.604 72.8087 108.604 72.5225C108.604 71.9554 108.366 71.7402 108.065 71.7402C107.742 71.7402 107.677 71.8398 107.462 72.2708C107.283 72.63 107.103 73.3472 107.103 73.8001C107.096 74.2649 107.255 74.6607 107.641 74.6607ZM110.698 74.409C110.411 74.7543 110.159 74.9476 109.987 74.9476C109.831 74.9476 109.729 74.848 109.729 74.4808C109.729 74.2875 109.737 74.0219 109.78 73.6985L110.238 69.9958C110.122 70.0397 110.002 70.0734 109.879 70.0967V69.9811C110.124 69.8875 110.482 69.7308 110.72 69.5947L110.21 73.4402C110.181 73.6919 110.131 74.1733 110.131 74.3665C110.131 74.5531 110.173 74.5883 110.224 74.5883C110.29 74.5883 110.34 74.5458 110.59 74.324L110.698 74.409ZM114.178 74.4376C113.948 74.6893 113.761 74.9476 113.503 74.9476C113.302 74.9476 113.174 74.7829 113.174 74.4031C113.174 74.1374 113.231 73.5909 113.296 73.1686L113.282 73.1546C112.78 74.3958 112.378 74.9482 111.839 74.9482C111.624 74.9482 111.444 74.7756 111.444 74.4462C111.444 73.7576 111.774 72.0351 111.774 71.8338L111.415 71.9195V71.8053L112.29 71.4175C112.126 72.1207 111.874 74.0013 111.874 74.2736C111.874 74.4462 111.932 74.5173 112.032 74.5173C112.621 74.5173 113.324 72.6951 113.525 71.6187L113.941 71.4892C113.805 72.3 113.604 73.7357 113.604 74.3812C113.604 74.5604 113.624 74.6249 113.689 74.6249C113.797 74.6249 113.948 74.4456 114.055 74.338L114.178 74.4376ZM114.976 71.6034H115.285L115.407 70.6552L115.844 70.4905L115.693 71.6034H116.304V71.8186H115.664C115.463 73.2675 115.406 73.8273 115.406 74.2503C115.406 74.5226 115.471 74.5877 115.599 74.5877C115.751 74.5877 115.88 74.4515 116.131 74.1726L116.225 74.2583C115.988 74.6096 115.751 74.9469 115.407 74.9469C115.192 74.9469 114.976 74.7457 114.976 74.431C114.976 74.0006 115.184 72.4063 115.257 71.8186H114.976L114.976 71.6034ZM117.787 74.4024C117.637 74.6162 117.35 74.9469 117.127 74.9469C116.941 74.9469 116.862 74.7962 116.862 74.5306C116.862 74.1142 117.121 72.0623 117.207 71.8186C117.085 71.8538 116.97 71.8837 116.848 71.9182V71.804L117.68 71.4162C117.544 72.0829 117.293 74.0491 117.293 74.3865C117.293 74.5385 117.329 74.5877 117.394 74.5877C117.444 74.5877 117.544 74.5086 117.716 74.3294L117.787 74.4024ZM117.572 70.1106C117.659 70.1106 117.816 70.1611 117.816 70.44C117.816 70.6485 117.708 70.7926 117.536 70.7926C117.421 70.7926 117.277 70.7342 117.277 70.4759C117.277 70.1897 117.428 70.1106 117.572 70.1106ZM119.811 71.4168C120.422 71.4168 120.593 72.0404 120.593 72.5789C120.593 73.5843 120.012 74.9469 118.994 74.9469C118.433 74.9469 118.233 74.3579 118.233 73.8844C118.232 73.0949 118.778 71.4168 119.811 71.4168ZM119.201 74.6607C119.281 74.6617 119.361 74.6463 119.435 74.6153C119.509 74.5844 119.576 74.5386 119.631 74.4808C120.005 74.1082 120.162 72.8087 120.162 72.5225C120.162 71.9554 119.926 71.7402 119.623 71.7402C119.301 71.7402 119.237 71.8398 119.022 72.2708C118.842 72.63 118.663 73.3472 118.663 73.8001C118.655 74.2649 118.813 74.6607 119.201 74.6607ZM124.095 74.4881C123.893 74.6952 123.658 74.9469 123.391 74.9469C123.154 74.9469 123.111 74.7172 123.111 74.4515C123.111 73.9781 123.428 72.3286 123.428 72.0988C123.428 72.0118 123.391 71.9899 123.349 71.9899C122.911 71.9899 121.885 73.8924 121.734 74.8314L121.339 74.8752C121.462 73.834 121.632 72.7443 121.74 71.8325C121.618 71.8611 121.505 71.8896 121.383 71.9182V71.804L122.258 71.4162C122.128 72.0258 122.006 72.901 121.912 73.6407H121.926C122.185 72.8731 123.046 71.4879 123.634 71.4879C123.836 71.4879 123.893 71.5955 123.893 71.8392C123.893 72.1619 123.541 73.9415 123.541 74.3659C123.541 74.502 123.592 74.5877 123.678 74.5877C123.778 74.5877 123.901 74.4801 124 74.3865L124.095 74.4881ZM126.536 71.9188C126.334 71.8538 126.126 71.7761 125.839 71.7761C125.488 71.7761 125.107 71.8697 125.107 72.2416C125.107 72.729 126.449 73.2104 126.449 73.8486C126.449 74.5086 125.825 74.9469 125.236 74.9469C125.021 74.9469 124.749 74.9044 124.555 74.7743L124.626 74.3659C124.799 74.4595 125.028 74.5877 125.38 74.5877C125.818 74.5877 126.126 74.3865 126.126 74.0637C126.126 73.4966 124.784 73.0743 124.784 72.4501C124.784 71.79 125.445 71.4162 125.961 71.4162C126.154 71.4162 126.434 71.4587 126.535 71.5304L126.536 71.9188Z" fill="#F1FFE5"/>
</svg>
