<svg width="119" height="118" viewBox="0 0 119 118" fill="none" xmlns="http://www.w3.org/2000/svg">
<path d="M45.7991 33.6807C55.554 34.115 65.2184 35.7258 74.5932 38.4405C88.6736 42.585 103.677 43.4356 111.079 40.4313C112.617 39.7978 114.246 41.1371 113.74 42.585C110.102 53.1181 100.709 74.5644 78.412 81.8037L77.7242 82.0209L77.6518 82.0389C72.4577 83.6497 67.0463 84.3917 61.6169 84.265C41.1117 83.7221 29.2936 75.4331 22.7058 67.5785C21.9638 66.6736 20.6788 66.4564 19.6834 67.0356C15.9914 69.2978 12.4985 71.8497 9.24079 74.6911C8.67975 75.1617 7.95582 75.3788 7.2319 75.234C6.50797 75.1074 5.89263 74.6549 5.53067 74.0215C5.223 73.4242 5.16871 72.7365 5.38588 72.1031C5.58496 71.4696 6.03742 70.9448 6.63466 70.6371C14.1273 66.6736 19.4301 64.1942 23.0316 62.692C23.104 62.6558 23.1764 62.6377 23.2488 62.6015C23.5564 62.4748 23.846 62.3482 24.1175 62.2396C26.054 61.4613 30.5423 59.561 31.9721 59.3077H31.9902C32.2255 59.2715 32.4426 59.1267 32.5512 58.9095L32.5874 58.8009L33.0037 55.9776H33.0218L33.058 55.7604L33.8724 49.8966L38.0531 56.8644C38.1255 56.9911 38.2521 57.0816 38.3788 57.0997L38.4874 57.1178H40.4058C40.623 57.1178 40.8221 56.973 40.8945 56.7558L40.9126 56.6653L42.4147 45.8064C42.4328 45.6617 42.3785 45.4988 42.288 45.3902C42.2156 45.2997 42.1251 45.2454 42.0166 45.2273L41.908 45.2092H40.0077C39.7724 45.2092 39.5914 45.354 39.519 45.5712L39.5009 45.6617L38.6141 52.1589L34.5239 45.4626C34.4515 45.3359 34.3248 45.2454 34.1801 45.2273L34.0715 45.2092H32.0445C31.8273 45.2092 31.6282 45.354 31.5558 45.5531L31.5377 45.6436L30.1261 55.8509V55.9052H30.108L29.7641 58.4932C26.4159 58.2399 23.0497 58.6199 19.8463 59.6334C19.412 59.742 18.9414 59.6515 18.5613 59.3801C18.1813 59.1267 17.9279 58.7104 17.8736 58.258C15.9733 49.3175 20.896 39.9064 30.8862 36.0334C30.9948 35.9972 31.1034 35.9429 31.2301 35.9067C35.8994 34.1874 40.8402 33.4273 45.7991 33.6807ZM77.5613 59.7782H74.9009C74.7742 59.7782 74.6475 59.8506 74.5751 59.9411C74.5209 60.0135 74.5028 60.1221 74.5028 60.2126L74.5209 60.3031L78.05 70.3656C78.0681 70.438 78.0862 70.5285 78.0681 70.6009L78.05 70.6733L74.9552 77.1162C74.9009 77.2429 74.9009 77.3877 74.9733 77.5144C75.0276 77.6049 75.1181 77.6773 75.2267 77.6954H75.2991H78.0862C78.2129 77.6954 78.3215 77.6411 78.3939 77.5506L78.4482 77.4782L86.6285 60.3574C86.6828 60.2307 86.6828 60.0859 86.6104 59.9592C86.5561 59.8687 86.4656 59.7963 86.357 59.7782H86.2847H83.5337C83.4071 59.7782 83.2985 59.8325 83.2261 59.9411L83.1718 60.0135L80.5656 65.8049C80.4932 65.9497 80.3485 66.0402 80.1856 66.0402C80.0589 66.0402 79.9322 65.9678 79.8779 65.8592L79.8417 65.7687L77.9414 60.0678C77.869 59.8868 77.7242 59.7782 77.5613 59.7782ZM20.2988 70.3475C20.9322 70.3294 21.5475 70.5828 22 71.0172C22.4524 71.4696 22.7058 72.0669 22.7058 72.7184C22.7239 73.7138 22.1629 74.6187 21.258 75.0169C20.3531 75.415 19.3034 75.2159 18.6156 74.5282C17.9098 73.8405 17.6926 72.7727 18.0727 71.8678C18.4347 70.9448 19.3034 70.3475 20.2988 70.3475ZM43.2472 59.6153H41.0393C40.8583 59.6153 40.6954 59.6877 40.5868 59.8325C40.4963 59.9411 40.4601 60.0859 40.4601 60.2126L40.4782 60.3212L43.2834 74.3834C43.3377 74.6187 43.5187 74.7997 43.754 74.854H43.8626H44.6408C44.8218 74.854 44.9847 74.7816 45.0932 74.6368L45.1475 74.5463L49.4911 66.4745C49.5092 66.4383 49.5454 66.4202 49.5635 66.4383C49.5816 66.4383 49.5997 66.4564 49.6178 66.4745L49.6359 66.5107L51.681 74.4196C51.7353 74.6549 51.9162 74.8178 52.1515 74.854H52.242H53.0202C53.2012 74.854 53.3822 74.7635 53.4908 74.6187L53.5451 74.5282L60.3138 60.4659C60.4043 60.285 60.3862 60.0678 60.2776 59.8868C60.1871 59.742 60.0423 59.6515 59.8794 59.6153H59.7709H57.4181C57.219 59.6153 57.038 59.7058 56.9294 59.8687L56.8751 59.9592L53.4727 67.4699C53.4546 67.488 53.4365 67.5061 53.4003 67.5061C53.3822 67.5061 53.3641 67.488 53.346 67.4699L53.3279 67.4337L51.4276 60.0497C51.3733 59.8144 51.1742 59.6515 50.9571 59.6153H50.8666H49.835C49.654 59.6153 49.4911 59.6877 49.3825 59.8325L49.3282 59.923L45.2742 67.4699C45.2561 67.5061 45.2199 67.5242 45.1837 67.5061C45.1656 67.5061 45.1475 67.488 45.1294 67.4699L45.1113 67.4518L43.7721 60.104C43.7721 59.8144 43.5187 59.6153 43.2472 59.6153ZM19.3758 71.0715C18.7966 71.4153 18.4709 72.0488 18.489 72.7184C18.4709 73.2251 18.6518 73.6957 19.0138 74.0577C19.3577 74.4196 19.8282 74.6187 20.335 74.6187C20.8236 74.6187 21.2942 74.4196 21.6199 74.0577C21.9638 73.6957 22.1448 73.2251 22.1267 72.7365C22.1629 72.0669 21.819 71.4334 21.258 71.0896C20.6969 70.7457 19.9368 70.7457 19.3758 71.0715ZM21.0951 71.6868C21.2399 71.8135 21.3304 72.0126 21.3304 72.2116C21.3123 72.4831 21.1132 72.7003 20.8417 72.7546V72.7908C21.077 72.8813 21.2399 73.1166 21.2761 73.3699C21.2942 73.569 21.3666 73.7862 21.457 73.9672H20.8779C20.7874 73.7862 20.7331 73.5871 20.6969 73.388C20.6607 73.1347 20.5159 73.008 20.2083 73.008H19.9549V73.9672H19.412V71.5963C19.7015 71.542 20.0092 71.5239 20.3169 71.5239C20.5702 71.4877 20.8417 71.5601 21.0951 71.6868ZM20.2445 71.904C20.1359 71.904 20.0454 71.904 19.9368 71.9402V72.6279H20.1902C20.4978 72.6279 20.7331 72.5193 20.7331 72.284C20.7331 72.0488 20.5883 71.904 20.2445 71.904ZM68.9466 59.5972C66.1957 59.5972 64.0963 60.2669 62.6304 61.6061C61.1644 62.9273 60.35 64.8276 60.4224 66.8184C60.3681 68.1396 60.7844 69.4426 61.5988 70.4923C62.3046 71.4153 63.3905 71.9402 64.5488 71.9221C65.6889 71.8859 66.7929 71.5058 67.6978 70.8L67.9331 70.6009L67.8788 70.9991C67.8607 71.18 67.8969 71.361 68.0236 71.4877C68.1141 71.5963 68.2408 71.6687 68.3856 71.6868L68.4942 71.7049H70.7383C71.0098 71.7049 71.2451 71.5239 71.3175 71.2886L71.3356 71.18L72.8196 60.5926C72.8739 60.2669 72.6567 59.9592 72.331 59.8868C71.2089 59.6877 70.0687 59.5972 68.9466 59.5972ZM68.0236 62.5291L68.277 62.5472C68.4399 62.5472 68.6209 62.5472 68.7837 62.5653L69.0371 62.5834L68.277 67.9948C68.2589 68.1577 68.1684 68.3024 68.0598 68.3929C67.4083 68.9359 66.5939 69.2616 65.7432 69.2797C65.2546 69.2978 64.784 69.0807 64.4945 68.6825C64.1687 68.1939 64.0058 67.5966 64.042 66.9994C64.0058 65.8411 64.3859 64.719 65.1098 63.8322C65.7975 63.0721 66.7567 62.6015 67.7702 62.5472L68.0236 62.5291ZM81.1991 49.1003C80.3847 50.0233 79.9503 51.2359 79.9865 52.4666C79.9322 53.6972 80.3847 54.8917 81.2353 55.7604C82.1402 56.611 83.3528 57.0454 84.5834 56.9911C85.5607 56.973 86.5199 56.7739 87.4248 56.4482C87.6058 56.3758 87.7506 56.2491 87.823 56.0681L87.8592 55.9595L88.185 54.4031C88.2031 54.3307 88.1669 54.2402 88.1126 54.204C88.0583 54.1497 87.9678 54.1316 87.8954 54.1678C86.9362 54.6021 85.9046 54.8736 84.8549 54.9641C84.2396 55.0184 83.6423 54.765 83.2261 54.3126C82.8098 53.8601 82.6288 53.2267 82.7374 52.6294C82.7374 52.6113 82.7374 52.5932 82.7555 52.5932L82.7736 52.5751H82.7917H88.1488C88.5107 52.5751 88.8184 52.3037 88.8546 51.9417C88.8908 51.7245 88.8908 51.4893 88.8908 51.2721C88.927 50.2224 88.5469 49.1908 87.823 48.4307C87.1896 47.8153 86.3751 47.4353 85.4883 47.381C83.8776 47.2181 82.2669 47.8515 81.1991 49.1003ZM58.6669 45.535H56.5675C56.4408 45.535 56.3141 45.6255 56.2598 45.734L56.2417 45.8064L56.0064 47.2181C55.9883 47.3448 55.8797 47.4534 55.7712 47.4896H55.6988H54.3776C54.2509 47.4896 54.1242 47.5801 54.0699 47.6886L54.0518 47.761L53.8166 49.1546C53.7985 49.2451 53.8166 49.3537 53.889 49.4261C53.9432 49.4804 53.9975 49.5166 54.0699 49.5347H54.1423H55.2282C55.3187 49.5347 55.4273 49.5709 55.4816 49.6432C55.5359 49.6975 55.554 49.7699 55.554 49.8423V49.9147L54.9748 53.0819C54.9205 53.3534 54.8843 53.6248 54.9024 53.8963C54.8663 54.7107 55.1377 55.507 55.6626 56.1224C56.2055 56.7015 56.9837 57.0273 57.762 56.9911C58.504 56.973 59.246 56.8101 59.9337 56.4844C60.0242 56.4482 60.0966 56.3577 60.1147 56.2491L60.1328 56.1767V54.4755C60.1328 54.3669 60.0785 54.2583 59.988 54.204C59.8975 54.1497 59.7709 54.1316 59.6804 54.1859C59.3365 54.3669 58.9564 54.4755 58.5583 54.5117C58.0153 54.5117 57.7439 54.0954 57.7439 53.281C57.7439 53.1181 57.762 52.9552 57.7801 52.7923L57.8163 52.557L58.3049 49.8061C58.323 49.6794 58.4316 49.5709 58.5402 49.5347H58.6126H62.4675L61.9245 53.3896C61.8883 53.6248 61.8883 53.8782 61.8883 54.1135C61.8521 54.8736 62.0874 55.6156 62.5942 56.1948C63.119 56.7196 63.8429 56.9911 64.585 56.9549C65.5985 56.9368 66.5758 56.5748 67.354 55.9414L67.5712 55.7604L67.4626 56.412C67.4445 56.5024 67.4807 56.611 67.535 56.6834C67.5893 56.7377 67.6436 56.7739 67.7159 56.792H67.7883H69.8515C69.9782 56.792 70.1049 56.7015 70.1592 56.5748L70.1773 56.5024L71.3718 47.8515C71.3899 47.761 71.3537 47.6524 71.2994 47.5801C71.2451 47.5258 71.1908 47.4896 71.1184 47.4715H71.046H68.9647C68.8199 47.4715 68.7113 47.562 68.657 47.6886L68.639 47.761L67.8607 53.4439C67.8426 53.5163 67.8245 53.5886 67.7702 53.6429C66.9558 54.4936 66.2138 54.9279 65.5261 54.9279C64.965 54.9279 64.6936 54.4574 64.6936 53.5343C64.6936 53.281 64.7116 53.0457 64.7297 52.8104L64.784 52.4485L65.4175 47.8696C65.4356 47.7791 65.3994 47.6705 65.3451 47.5982C65.2908 47.5439 65.2365 47.5077 65.1641 47.4896H65.0917H59.0831C58.9926 47.4896 58.9021 47.4534 58.8298 47.3629C58.7755 47.3086 58.7574 47.2362 58.7574 47.1638V47.0914L58.9926 45.915C59.0107 45.8245 58.9926 45.7159 58.9202 45.6436C58.8478 45.5712 58.7574 45.535 58.6669 45.535ZM49.7264 47.3448C47.5908 47.3448 45.9258 47.8696 44.7856 48.9193C43.6454 49.9509 43.012 51.4531 43.0482 52.9914C43.012 54.023 43.3377 55.0546 43.9712 55.869C44.5322 56.5929 45.3828 56.9911 46.2877 56.9911C47.1745 56.973 48.0432 56.6653 48.7491 56.1224L48.9482 55.9595L48.8758 56.4663C48.8577 56.5567 48.8939 56.6472 48.9482 56.7196C48.9843 56.7739 49.0567 56.8101 49.111 56.8282H49.1834H51.2828C51.4095 56.8282 51.5362 56.7558 51.5724 56.6291L51.5905 56.5567L52.785 47.9601C52.8031 47.7972 52.6945 47.6343 52.5316 47.5982C51.6086 47.4353 50.6675 47.3448 49.7264 47.3448ZM92.7095 48.1954C92.0761 48.7383 91.7141 49.5347 91.7503 50.3672C91.7684 50.7472 91.877 51.1092 92.0942 51.4169C92.5285 51.9779 93.0534 52.4666 93.6325 52.8828C94.4288 53.4982 94.827 53.9325 94.827 54.2221C94.827 54.5659 94.5374 54.7288 93.9221 54.7288C93.2163 54.6745 92.5285 54.5117 91.8589 54.2402C91.7503 54.204 91.6236 54.204 91.515 54.2764C91.4426 54.3307 91.3702 54.385 91.334 54.4755L91.3159 54.5659L91.0807 55.8328C91.0445 56.0138 91.135 56.2129 91.2978 56.2853C92.2028 56.7377 93.1982 56.973 94.1936 56.9911C95.0985 57.0273 95.9672 56.7377 96.673 56.1767C97.3064 55.6699 97.6503 54.8917 97.6322 54.0954C97.6322 53.6429 97.5055 53.2086 97.2702 52.8466C96.8359 52.2313 96.2929 51.6883 95.6595 51.2721C94.9356 50.7291 94.5736 50.3129 94.5736 50.0414C94.5736 49.7699 94.7727 49.6432 95.1709 49.6432C95.569 49.6613 95.9672 49.7337 96.3472 49.8423C96.673 49.9328 96.9988 50.0414 97.3245 50.1862C97.4512 50.2405 97.5779 50.2224 97.6865 50.15C97.777 50.0957 97.8494 50.0052 97.8675 49.9147L97.8856 49.8423L98.0123 48.5212C98.0304 48.3583 97.9399 48.1773 97.7951 48.1049C96.9807 47.6524 96.0577 47.4172 95.1347 47.3991C94.284 47.3086 93.4153 47.6163 92.7095 48.1954ZM78.6291 47.3448C78.0138 47.3448 77.3261 47.7791 76.5659 48.6478L76.385 48.8831L76.3488 48.8469L76.4755 47.9782C76.4936 47.8515 76.4574 47.7429 76.385 47.6343C76.3307 47.562 76.2402 47.5077 76.1678 47.4896L76.0773 47.4715H74.1589C73.9779 47.4715 73.8331 47.5801 73.7788 47.7429L73.7607 47.8334L72.5844 56.3215C72.5663 56.4482 72.6024 56.5567 72.6748 56.6472C72.7291 56.7196 72.8015 56.7558 72.892 56.792L72.9825 56.8101H74.9009C75.0819 56.8101 75.2267 56.7015 75.281 56.5386L75.2991 56.4482L76.0049 51.2721C76.1316 50.9644 76.3307 50.711 76.584 50.4939C76.8555 50.15 77.2537 49.9509 77.6699 49.9147C78.0319 49.9509 78.3758 50.1319 78.5929 50.4215C78.6834 50.512 78.8101 50.5663 78.9549 50.5482C79.0635 50.5301 79.154 50.4758 79.2264 50.3853L79.2626 50.3129L80.1132 48.5936C80.1856 48.4488 80.1675 48.2497 80.0589 48.123C79.7331 47.7067 79.2083 47.4172 78.6291 47.3448ZM49.2015 49.6613C49.4006 49.6613 49.5997 49.6613 49.7988 49.6975L49.2015 54.0049C49.1834 54.0773 49.1472 54.1497 49.0929 54.204C48.5681 54.6564 47.9166 54.9279 47.2288 54.946C46.8488 54.9641 46.4868 54.7831 46.2515 54.4755C45.9982 54.0954 45.8715 53.6248 45.8896 53.1543C45.8715 52.2494 46.161 51.3626 46.7221 50.6567C47.3555 49.9509 48.2604 49.589 49.2015 49.6613ZM84.9092 49.2451C85.2712 49.227 85.6331 49.3718 85.8865 49.6251C86.1399 49.8966 86.2666 50.2405 86.2485 50.6024V50.7834L86.2304 50.9644H83.4794C83.3708 50.9644 83.2623 50.9101 83.208 50.8196C83.1537 50.7291 83.1356 50.6205 83.1899 50.512C83.4432 49.7699 84.131 49.2632 84.9092 49.2451ZM92.7276 45.3721H91.2436C91.1169 45.3721 91.0083 45.4264 90.9359 45.5169L90.8816 45.5893L89.8138 47.7067C89.7414 47.8334 89.7595 47.9782 89.8319 48.1049C89.8862 48.1954 89.9767 48.2678 90.0853 48.2859H90.1758H90.5739C90.6463 48.2859 90.7187 48.2678 90.7911 48.2316L90.8454 48.1773L92.9991 46.0598C93.1077 45.9512 93.162 45.7702 93.0896 45.6255C93.0353 45.4626 92.8905 45.354 92.7276 45.3721Z" fill="#F1FFE5"/>
</svg>
