<svg width="191" height="126" viewBox="0 0 191 126" fill="none" xmlns="http://www.w3.org/2000/svg">
<path d="M52.1392 54.75L52.5559 54C52.8892 53.1667 53.3892 52.5 54.0559 51.9167C54.4725 51.6667 54.9725 51.5833 55.4725 51.5833C56.1392 51.5833 56.4725 51.75 56.4725 52C56.3892 52.75 56.1392 53.4167 55.7225 54L55.1392 55.1667C58.3059 55.6667 61.3892 56.0833 64.3059 56.5833C64.9725 55.3333 65.5559 54 66.0559 52.6667C66.3892 51.75 66.1392 50.8333 65.5559 50.0833C64.7225 49.1667 63.7225 48.5833 62.5559 48.3333C60.8892 47.9167 59.0559 47.75 57.3059 47.75C55.3059 47.75 53.3059 48 51.3059 48.4167C49.6392 48.75 48.0559 49.4167 46.5559 50.25C45.3892 50.9167 44.3059 51.75 43.5559 52.8333C43.3892 53.0833 43.1392 53.4167 42.9725 53.6667C46.0559 53.9167 49.1392 54.3333 52.1392 54.75Z" fill="#F1FFE5"/>
<path d="M45.3892 71.0834C47.3892 71.0834 49.3892 70.9167 51.3892 70.4167C53.0558 70.0834 54.7225 69.4167 56.2225 68.5834C57.3892 67.9167 58.3892 67.0834 59.2225 66C60.2225 64.5 61.1392 62.9167 61.9725 61.25L63.9725 57.3334C61.0558 56.75 57.9725 56.25 54.8058 55.75L50.5558 64.0834C50.1392 65 49.6392 65.8334 48.9725 66.5834C48.5558 67 47.9725 67.1667 47.3892 67.1667C46.7225 67.1667 46.3892 67 46.3892 66.6667C46.5558 65.8334 46.8892 65 47.3058 64.25L51.9725 55.25C48.9725 54.8334 45.8892 54.3334 42.8058 53.9167C42.3058 54.8334 41.6392 55.9167 40.9725 57.3334L38.8892 61.3334C38.0558 62.9167 37.3058 64.5 36.7225 66.1667C36.3892 67 36.5558 68 37.1392 68.75C37.8892 69.6667 38.9725 70.25 40.1392 70.5C41.8892 70.9167 43.6392 71.1667 45.3892 71.0834Z" fill="#F1FFE5"/>
<path d="M72.4725 60.4166L72.3892 70.5833H81.1392L84.9725 63.1666C80.6392 61.1666 73.6392 59.4166 65.4725 57.8333L58.8892 70.6666H67.2225L72.4725 60.4166Z" fill="#F1FFE5"/>
<path d="M79.7225 59.75C81.9725 60.3334 83.9725 60.9167 85.7225 61.5834L92.6392 48.1667H84.3059L79.1392 58.25L78.7225 48.1667H70.3892L65.9725 56.8334C71.0559 57.75 75.7225 58.6667 79.7225 59.75Z" fill="#F1FFE5"/>
<path d="M85.7225 61.5833L84.9725 63.0833C85.8892 63.5 86.8892 64 87.7225 64.5833C92.1392 67.6666 91.4725 69.3333 88.0559 70.8333C82.3892 73.5 64.0559 74.8333 64.0559 74.8333C65.0559 73.6666 65.9725 72.5 66.8892 71.25C56.6392 75.5 44.3892 77.3333 39.9725 78C61.3059 79.1666 86.6392 77.3333 94.5559 72C98.3892 69.3333 95.2225 65.0833 85.7225 61.5833Z" fill="#F1FFE5"/>
<path d="M33.1392 52.5833L22.9725 51.75C28.9725 52.4167 35.8059 53.1667 42.7225 54.0833L42.9725 53.5833L33.1392 52.5833Z" fill="#F1FFE5"/>
<path d="M93.7226 49.5C93.806 49.3334 93.9726 49.0834 94.1393 49C94.306 48.8334 94.4726 48.75 94.7226 48.6667C95.1393 48.5 95.6393 48.5 96.056 48.6667C96.2226 48.75 96.4726 48.8334 96.6393 49C96.806 49.1667 96.9726 49.3334 97.056 49.5C97.2226 50 97.2226 50.5 97.056 50.9167C96.9726 51.0834 96.806 51.3334 96.6393 51.5C96.4726 51.6667 96.306 51.75 96.056 51.8334C95.6393 52 95.1393 52 94.7226 51.8334C94.556 51.75 94.306 51.6667 94.1393 51.5C93.556 51 93.3893 50.1667 93.7226 49.5ZM94.1393 50.75C94.2226 50.9167 94.306 51.0834 94.3893 51.1667C94.4726 51.25 94.6393 51.4167 94.806 51.4167C94.9726 51.5 95.1393 51.5 95.306 51.5C95.4726 51.5 95.6393 51.5 95.806 51.4167C95.9726 51.3334 96.1393 51.25 96.2226 51.1667C96.3893 51.0834 96.4726 50.9167 96.4726 50.75C96.6393 50.4167 96.6393 50 96.4726 49.6667C96.3893 49.5 96.306 49.3334 96.2226 49.25C96.1393 49.1667 95.9726 49 95.806 49C95.6393 48.9167 95.4726 48.9167 95.306 48.9167C94.9726 48.9167 94.6393 49.0834 94.3893 49.3334C94.306 49.4167 94.1393 49.5834 94.1393 49.75C94.056 50 94.056 50.4167 94.1393 50.75ZM95.3893 49.25C95.556 49.25 95.806 49.25 95.9726 49.4167C96.1393 49.5 96.1393 49.6667 96.1393 49.8334C96.1393 49.9167 96.1393 50 96.1393 50.0834C96.1393 50.1667 96.056 50.1667 96.056 50.25C95.9726 50.3334 95.9726 50.3334 95.8893 50.3334H95.7226L96.2226 51.1667H95.806L95.306 50.3334H95.056V51.1667H94.7226V49.3334H95.3893V49.25ZM95.3893 50C95.4726 50 95.556 50 95.6393 49.9167C95.7226 49.9167 95.7226 49.8334 95.7226 49.6667C95.7226 49.6667 95.7226 49.5834 95.7226 49.5L95.6393 49.4167H95.056V49.9167L95.3893 50Z" fill="#F1FFE5"/>
<path d="M108.139 57.1667C107.806 57.5834 107.389 58 106.889 58.3334C106.556 58.5 106.139 58.6667 105.806 58.6667H103.222C102.806 58.6667 102.472 58.5834 102.139 58.3334C101.639 58 101.222 57.5834 100.889 57.0834C100.722 56.75 100.556 56.4167 100.639 56.0834V51.0834C100.639 50.75 100.722 50.3334 100.889 50C101.222 49.5 101.639 49.0834 102.139 48.75C102.472 48.5834 102.889 48.4167 103.222 48.4167H105.806C106.222 48.4167 106.556 48.5 106.889 48.75C107.306 49.0834 107.722 49.5 108.139 49.9167C108.306 50.25 108.472 50.5834 108.472 51V56.0834C108.472 56.5 108.306 56.8334 108.139 57.1667ZM106.389 51.0834C106.222 50.8334 106.056 50.6667 105.806 50.4167H103.306C103.056 50.5834 102.889 50.8334 102.639 51.0834V56.0834C102.806 56.3334 103.056 56.5 103.222 56.75H105.722C105.972 56.5834 106.139 56.3334 106.389 56.0834V51.0834Z" fill="#F1FFE5"/>
<path d="M116.973 53.5C116.723 53.8334 116.389 54.1667 116.056 54.4167C115.723 54.6667 115.223 54.8334 114.806 54.8334H111.973V58.75H109.889V48.5834H114.806C115.223 48.5834 115.723 48.75 116.056 49C116.389 49.25 116.723 49.5834 116.973 49.9167C117.223 50.25 117.306 50.6667 117.306 51V52.4167C117.306 52.75 117.223 53.1667 116.973 53.5ZM115.306 50.9167C115.223 50.75 115.056 50.5834 114.889 50.5H112.056V52.8334H114.889C115.056 52.75 115.223 52.5834 115.306 52.4167V50.9167Z" fill="#F1FFE5"/>
<path d="M122.639 50.5V58.5833H120.556V50.5H117.806V48.5H125.306V50.5H122.639Z" fill="#F1FFE5"/>
<path d="M126.556 58.5833V48.5H128.639V58.5833H126.556Z" fill="#F1FFE5"/>
<path d="M137.139 58.5833V52.5C136.556 53.75 135.973 54.9167 135.389 56.1667H134.056L132.306 52.5V58.5833H130.223V48.5H132.473L134.723 53.0833C135.473 51.5833 136.223 50 136.973 48.5H139.139V58.5833H137.139Z" fill="#F1FFE5"/>
<path d="M148.056 57.1667C147.723 57.6667 147.306 58 146.889 58.3333C146.556 58.5 146.139 58.6667 145.806 58.6667H143.389C142.973 58.6667 142.639 58.5833 142.306 58.3333C141.806 58 141.389 57.5833 141.056 57.0833C140.889 56.75 140.723 56.4167 140.806 56.0833V48.5833H142.889V56.0833C143.056 56.3333 143.306 56.5 143.473 56.75H145.806C146.056 56.5833 146.223 56.3333 146.389 56.0833V48.5H148.473V56.0833C148.389 56.5 148.306 56.8333 148.056 57.1667Z" fill="#F1FFE5"/>
<path d="M156.723 58.5833V52.5C156.139 53.75 155.556 54.9167 154.973 56.1667H153.639L151.889 52.5V58.5833H149.889V48.5H152.139L154.389 53.0833C155.139 51.5833 155.889 50 156.639 48.5H158.806V58.5833H156.723Z" fill="#F1FFE5"/>
<path d="M105.972 70.3334L102.722 64.4167V70.3334H100.639V60.1667H102.722L105.889 66.1667V60.1667H107.889V70.25L105.972 70.3334Z" fill="#F1FFE5"/>
<path d="M116.889 68.8333C116.556 69.3333 116.139 69.75 115.723 70.0833C115.389 70.25 114.973 70.4167 114.639 70.4167H112.223C111.806 70.4167 111.473 70.3333 111.139 70.0833C110.639 69.75 110.223 69.3333 109.889 68.8333C109.723 68.5 109.556 68.1667 109.639 67.8333V60.25H111.723V67.8333C111.889 68.0833 112.139 68.25 112.306 68.5H114.639C114.889 68.3333 115.056 68.0833 115.223 67.8333V60.25H117.306V67.8333C117.223 68.1667 117.139 68.5 116.889 68.8333Z" fill="#F1FFE5"/>
<path d="M123.056 62.25V70.3333H120.973V62.25H118.223V60.25H125.723V62.25H123.056Z" fill="#F1FFE5"/>
<path d="M133.889 65.1667C133.639 65.5 133.306 65.8334 132.973 66.0834C132.806 66.1667 132.723 66.25 132.556 66.3334L134.723 70.3334H132.389L130.389 66.4167H128.723V70.3334H126.723V60.1667H131.639C132.056 60.1667 132.556 60.3334 132.889 60.5834C133.223 60.8334 133.556 61.1667 133.806 61.5C134.056 61.8334 134.139 62.25 134.139 62.5834V64C134.139 64.4167 134.056 64.8334 133.889 65.1667ZM132.139 62.5834C132.056 62.4167 131.889 62.25 131.723 62.1667H128.806V64.5H131.639C131.806 64.4167 131.973 64.25 132.056 64.0834L132.139 62.5834Z" fill="#F1FFE5"/>
<path d="M135.806 70.3334V60.1667H137.889V70.25H135.806V70.3334Z" fill="#F1FFE5"/>
<path d="M143.806 62.25V70.3333H141.723V62.25H139.056V60.25H146.556V62.25H143.806Z" fill="#F1FFE5"/>
<path d="M147.639 70.3334V60.1667H149.722V70.25H147.639V70.3334Z" fill="#F1FFE5"/>
<path d="M158.889 68.8334C158.556 69.3334 158.139 69.6667 157.639 70.0834C157.306 70.25 156.889 70.4167 156.556 70.4167H153.972C153.556 70.4167 153.222 70.3334 152.889 70.0834C152.389 69.75 151.972 69.3334 151.639 68.8334C151.472 68.5 151.306 68.1667 151.389 67.8334V62.75C151.389 62.4167 151.472 62 151.639 61.6667C151.972 61.25 152.389 60.8334 152.889 60.5C153.222 60.3334 153.639 60.1667 153.972 60.1667H156.556C156.972 60.1667 157.306 60.25 157.639 60.5C158.056 60.8334 158.472 61.25 158.889 61.6667C159.056 62 159.222 62.3334 159.222 62.75V67.8334C159.139 68.1667 159.056 68.5 158.889 68.8334ZM157.139 62.75C156.972 62.5 156.806 62.3334 156.556 62.0834H154.056C153.806 62.25 153.639 62.5 153.389 62.75V67.75C153.556 68 153.806 68.1667 153.972 68.4167H156.472C156.722 68.25 156.889 68 157.139 67.75V62.75Z" fill="#F1FFE5"/>
<path d="M165.973 70.3334L162.722 64.4167V70.3334H160.639V60.1667H162.722L165.973 66.1667V60.1667H168.056V70.25L165.973 70.3334Z" fill="#F1FFE5"/>
</svg>
