<svg width="186" height="42" viewBox="0 0 186 42" fill="none" xmlns="http://www.w3.org/2000/svg">
<g clip-path="url(#clip0_2_177)">
<path d="M2.31487 34.048C3.07017 34.048 3.82407 34.048 4.40578 34.048C11.4331 34.048 18.5962 34.048 25.6214 33.9108C28.9114 33.9108 30.2498 32.1307 30.2498 28.8428C30.2498 26.5825 29.2215 25.3841 26.8205 25.1104C25.3134 24.9396 23.8406 24.9396 22.3314 24.9396C18.9042 24.9396 15.6142 24.9396 12.1877 24.8031C3.65117 24.4916 -0.667125 19.4236 0.534075 10.9298C1.42377 4.79852 4.57657 1.20331 10.9858 0.929614C19.6588 0.485114 28.329 0.758814 36.9656 0.622314C37.1364 0.622314 37.1364 0.758814 37.2736 0.758814C37.2736 3.15561 37.2736 5.38231 37.2736 7.91632C36.5211 7.91632 35.9373 7.91632 35.1827 7.91632C28.329 7.91632 21.3024 7.91632 14.4144 8.08712C10.9858 8.22362 8.89487 10.6225 9.34147 13.7396C9.64948 16.3065 11.4324 17.6428 14.2779 17.6428C18.3197 17.6428 22.3307 17.472 26.2381 17.6428C28.7735 17.7793 31.311 18.0873 33.5384 18.8419C36.8284 19.8702 38.6113 22.5743 38.9193 25.8622C39.0558 28.3969 39.0558 30.9302 38.6113 33.2948C37.583 38.3978 33.6756 40.9311 28.91 41.0697C19.9311 41.377 11.1237 41.2405 2.00617 41.2405C2.31487 38.9795 2.31487 36.7542 2.31487 34.048Z" fill="#F1FFE5"/>
<path d="M145.132 0.622307C145.132 3.15561 145.132 5.55381 145.132 7.91631C137.661 16.5823 130.189 25.2469 122.445 34.048C130.189 34.048 137.661 34.048 145.132 34.048C145.132 36.4469 145.132 38.843 145.132 41.2412C133.787 41.2412 122.273 41.2412 110.791 41.2412C110.791 38.8423 110.791 36.4462 110.791 33.9101C118.399 25.3827 126.008 16.7531 133.926 7.77911C126.008 7.77911 118.537 7.77911 110.791 7.77911C110.791 5.24581 110.791 2.84691 110.791 0.485107C122.273 0.622307 133.616 0.622307 145.132 0.622307Z" fill="#F1FFE5"/>
<path d="M60.4429 20.6227C65.9603 27.4715 71.3412 34.3553 76.8614 41.3777H65.8231C60.8895 34.9391 55.8166 28.3969 50.5729 21.3752V41.3777H41.902V0.758789H50.4357V20.3154C55.8166 13.7396 61.026 7.33459 66.4069 0.758789H76.8607C71.1704 7.47179 65.8231 14.0469 60.4429 20.6227Z" fill="#F1FFE5"/>
<path d="M87.6218 0.622307C87.6218 8.97891 87.6218 17.3348 87.6218 25.5542C87.6218 26.8905 87.759 28.0896 87.9298 29.4238C88.3764 32.13 89.8492 33.7743 92.5561 34.2188C93.8938 34.4953 95.2301 34.4953 96.5664 34.4953C100.029 34.4953 103.457 34.4953 107.054 34.4953C107.054 36.7549 107.054 38.9795 107.054 41.3784C105.683 41.3784 104.208 41.3784 102.872 41.3784C98.6566 41.2419 94.3383 41.3784 90.1565 40.9318C83.4393 40.1786 80.0128 36.4469 79.3947 29.7339C79.121 26.754 79.121 23.7734 79.121 20.6227C79.121 13.9104 79.121 7.33461 79.121 0.485107C81.9315 0.622307 84.777 0.622307 87.6218 0.622307Z" fill="#F1FFE5"/>
<path d="M177.385 21.5138C171.865 28.2268 166.484 34.9391 160.966 41.5142C157.368 41.5142 153.94 41.5142 150.069 41.5142C155.586 34.8019 160.966 28.2268 166.484 21.5138C160.966 14.6622 155.586 7.77908 149.898 0.621582C153.632 0.621582 157.093 0.621582 160.659 0.621582C166.21 7.47178 171.728 14.4914 177.385 21.5138Z" fill="#F1FFE5"/>
<path d="M164.566 41.5149C170.085 34.6661 175.465 28.0896 180.982 21.5145C175.465 14.6629 170.085 7.77982 164.394 0.622314C165.903 0.622314 167.238 0.622314 168.575 0.622314C174.129 7.47181 179.647 14.3549 185.164 21.5145C179.647 28.2275 174.128 34.9398 168.746 41.5149C167.547 41.5149 166.21 41.5149 164.566 41.5149Z" fill="#F1FFE5"/>
</g>
<defs>
<clipPath id="clip0_2_177">
<rect width="185.5" height="42" fill="white"/>
</clipPath>
</defs>
</svg>
