<svg width="91" height="91" viewBox="0 0 91 91" fill="none" xmlns="http://www.w3.org/2000/svg">
<mask id="mask0_13_52" style="mask-type:alpha" maskUnits="userSpaceOnUse" x="0" y="0" width="91" height="91">
<rect x="45.2548" width="64" height="64" transform="rotate(45 45.2548 0)" fill="#D9D9D9"/>
</mask>
<g mask="url(#mask0_13_52)">
<path d="M18.8235 48.7578L22.5893 45.0572L30.8458 53.9936L53.7094 31.5256L45.4529 22.5892L49.2187 18.8886L53.0526 22.6556L56.8184 18.9549L62.3693 24.6036L66.2684 20.9042L69.969 24.6699L66.2021 28.5039L71.753 34.1525L67.9872 37.8531L71.6867 41.7522L67.9209 45.4528L59.2783 36.8103L36.4147 59.2783L45.0573 67.9208L41.2915 71.6214L37.4576 67.8545L33.6918 71.5551L28.1409 65.9065L24.2418 69.6059L20.5412 65.8402L24.3081 62.0062L18.7572 56.3576L22.523 52.6569L18.8235 48.7578Z" fill="url(#paint0_linear_13_52)"/>
</g>
<defs>
<linearGradient id="paint0_linear_13_52" x1="71.6541" y1="45.4854" x2="18.8561" y2="45.0247" gradientUnits="userSpaceOnUse">
<stop stop-color="#53D909"/>
<stop offset="1" stop-color="#3CAE02"/>
</linearGradient>
</defs>
</svg>
